<svg width="22" height="22" viewBox="0 0 22 22" fill="none" xmlns="http://www.w3.org/2000/svg">
<path fill-rule="evenodd" clip-rule="evenodd" d="M2.23457 16.1426C1.95483 14.8838 1.83333 13.2228 1.83333 11C1.83333 8.77722 1.95483 7.11615 2.23457 5.85744C2.50968 4.61954 2.91288 3.88597 3.39943 3.39943C3.88597 2.91288 4.61954 2.50968 5.85743 2.23457C7.11615 1.95483 8.77722 1.83333 11 1.83333C13.2228 1.83333 14.8838 1.95483 16.1426 2.23457C17.3805 2.50968 18.114 2.91288 18.6006 3.39943C19.0871 3.88597 19.4903 4.61954 19.7654 5.85744C20.0452 7.11615 20.1667 8.77722 20.1667 11C20.1667 13.2228 20.0452 14.8838 19.7654 16.1426C19.4903 17.3805 19.0871 18.114 18.6006 18.6006C18.114 19.0871 17.3805 19.4903 16.1426 19.7654C14.8838 20.0452 13.2228 20.1667 11 20.1667C8.77722 20.1667 7.11615 20.0452 5.85743 19.7654C4.61954 19.4903 3.88597 19.0871 3.39943 18.6006C2.91288 18.114 2.50968 17.3805 2.23457 16.1426ZM11 22C1.9415 22 0 20.0585 0 11C0 1.9415 1.9415 0 11 0C20.0585 0 22 1.9415 22 11C22 20.0585 20.0585 22 11 22Z" fill="white"/>
<path fill-rule="evenodd" clip-rule="evenodd" d="M4.70533 12.2517C4.45774 11.007 4.58481 9.71677 5.07047 8.54428C5.55614 7.37179 6.37858 6.36964 7.43379 5.66457C8.42965 4.99916 9.59062 4.62654 10.7848 4.58673C11.424 4.56542 11.9154 5.08393 11.9154 5.68317L11.9154 10.0832L16.3154 10.0832C16.9146 10.0832 17.4331 10.5745 17.4118 11.2137C17.372 12.4079 16.9994 13.5689 16.334 14.5647C15.6289 15.62 14.6267 16.4424 13.4543 16.9281C12.2818 17.4137 10.9916 17.5408 9.74687 17.2932C8.50216 17.0456 7.35882 16.4345 6.46143 15.5371C5.56405 14.6397 4.95292 13.4964 4.70533 12.2517ZM6.76425 9.24587C6.41735 10.0834 6.32659 11.0049 6.50344 11.894C6.68028 12.7831 7.1168 13.5997 7.7578 14.2407C8.39879 14.8817 9.21546 15.3183 10.1045 15.4951C10.9936 15.6719 11.9152 15.5812 12.7527 15.2343C13.5902 14.8874 14.306 14.2999 14.8096 13.5462C15.1413 13.0497 15.3712 12.4958 15.4894 11.9165L11.182 11.9165C10.5745 11.9165 10.082 11.424 10.082 10.8165L10.082 6.5091C9.5027 6.62736 8.9488 6.85721 8.45234 7.18893C7.69861 7.69255 7.11115 8.40837 6.76425 9.24587Z" fill="white"/>
</svg>
