<svg width="14" height="14" viewBox="0 0 14 14" fill="none" xmlns="http://www.w3.org/2000/svg">
<path fill-rule="evenodd" clip-rule="evenodd" d="M0.706793 8.25182C0.459205 7.0071 0.586276 5.71693 1.07194 4.54443C1.5576 3.37194 2.38004 2.36979 3.43526 1.66472C4.43112 0.999309 5.59209 0.626696 6.78631 0.586882C7.42547 0.565572 7.91683 1.08408 7.91683 1.68332L7.91683 6.08332L12.3168 6.08332C12.9161 6.08332 13.4346 6.57468 13.4133 7.21384C13.3735 8.40807 13.0008 9.56903 12.3354 10.5649C11.6304 11.6201 10.6282 12.4426 9.45572 12.9282C8.28323 13.4139 6.99305 13.5409 5.74834 13.2934C4.50363 13.0458 3.36029 12.4346 2.4629 11.5373C1.56551 10.6399 0.954382 9.49653 0.706793 8.25182ZM2.76572 5.24602C2.41882 6.08351 2.32805 7.00507 2.5049 7.89415C2.68175 8.78323 3.11827 9.5999 3.75926 10.2409C4.40025 10.8819 5.21692 11.3184 6.106 11.4953C6.99508 11.6721 7.91664 11.5813 8.75413 11.2344C9.59163 10.8875 10.3074 10.3001 10.8111 9.54635C11.1428 9.04989 11.3726 8.49598 11.4909 7.91665L7.1835 7.91665C6.57599 7.91665 6.0835 7.42416 6.0835 6.81665L6.0835 2.50925C5.50417 2.62751 4.95026 2.85736 4.4538 3.18908C3.70008 3.69271 3.11262 4.40852 2.76572 5.24602Z" fill="#EF8903"/>
</svg>
