<svg width="22" height="22" viewBox="0 0 22 22" fill="none" xmlns="http://www.w3.org/2000/svg">
<g clip-path="url(#clip0_2722_14793)">
<path fill-rule="evenodd" clip-rule="evenodd" d="M6.48251 1.21009C6.01285 1.54792 5.5925 2.04373 5.50714 2.72339C5.44725 3.20028 5.43346 3.63209 5.43915 3.98378C3.29575 4.28783 1.70116 4.95344 0.802715 6.40441C-0.166056 7.96896 -0.137327 10.1864 0.255972 12.9997C0.730576 16.3945 1.48399 18.7977 3.42394 20.2478C5.31255 21.6595 8.12135 22 12.1479 22C13.8807 22 15.3521 21.9348 16.5808 21.7589C17.8051 21.5836 18.8463 21.291 19.6832 20.7991C20.5443 20.2928 21.1564 19.5942 21.5317 18.6847C21.8953 17.8033 22.0182 16.7691 21.9979 15.601L21.9978 15.5804L21.9974 15.5003C21.997 15.4304 21.996 15.3284 21.9942 15.1977C21.9906 14.9365 21.9833 14.5605 21.9689 14.0984C21.9399 13.1751 21.882 11.9041 21.7659 10.5156C21.65 9.12924 21.475 7.61319 21.2096 6.20316C20.947 4.80741 20.5847 3.45349 20.0692 2.4264C19.799 1.88809 19.3043 1.50895 18.8101 1.23824C18.2991 0.958374 17.6822 0.736611 17.0232 0.56263C15.7028 0.213985 14.0915 0.025601 12.5279 0.00243631C10.9696 -0.0206515 9.39286 0.119348 8.15254 0.465449C7.53544 0.637648 6.94779 0.875405 6.48251 1.21009ZM19.3363 6.17649C19.0951 4.9914 18.7941 3.97282 18.4307 3.24882C18.4023 3.19228 18.2828 3.03976 17.9294 2.84617C17.5927 2.66175 17.1285 2.48659 16.5552 2.33522C15.4112 2.03316 13.9533 1.85709 12.5008 1.83557C11.0431 1.81397 9.65684 1.94906 8.6453 2.23132C8.13648 2.3733 7.77596 2.53805 7.55307 2.69838C7.33766 2.85333 7.32702 2.94467 7.32621 2.95159L7.32618 2.95184C7.28655 3.26745 7.27236 3.55935 7.27137 3.80971C8.05599 3.76463 8.91515 3.74552 9.85213 3.74552C13.8786 3.74552 16.6874 4.086 18.576 5.49773C18.8527 5.70456 19.1053 5.93078 19.3363 6.17649ZM7.32152 4.6459L7.3215 4.64582L7.32152 4.6459ZM17.4784 6.96616C18.7691 7.93098 19.4577 9.63309 19.9283 12.9997C20.0697 14.0108 20.1513 14.8787 20.1647 15.6261C20.1835 16.6712 20.0674 17.4268 19.8369 17.9854C19.6173 18.5178 19.2782 18.9105 18.7541 19.2186C18.2058 19.5409 17.4277 19.7856 16.321 19.944C15.2187 20.1018 13.8473 20.1667 12.1479 20.1667C8.07425 20.1667 5.86367 19.7826 4.52159 18.7794C3.23087 17.8145 2.54231 16.1124 2.07165 12.7458C1.67274 9.89245 1.77977 8.30893 2.36143 7.36957C2.89288 6.51129 4.00099 5.93992 6.5023 5.70522C7.44753 5.61653 8.55567 5.57885 9.85213 5.57885C13.9257 5.57885 16.1363 5.96295 17.4784 6.96616Z" fill="white"/>
<path fill-rule="evenodd" clip-rule="evenodd" d="M10.9869 11C11.4932 11 11.9036 11.4104 11.9036 11.9167C11.9036 12.4229 11.4932 12.8333 10.9869 12.8333L7.30855 12.8333C6.80229 12.8333 6.39188 12.4229 6.39188 11.9167C6.39188 11.4104 6.80228 11 7.30855 11H10.9869ZM14.6654 14.6792C15.1716 14.6792 15.582 15.0896 15.582 15.5958C15.582 16.1021 15.1716 16.5125 14.6654 16.5125L7.30856 16.5125C6.8023 16.5125 6.39189 16.1021 6.39189 15.5958C6.39189 15.0896 6.8023 14.6792 7.30856 14.6792L14.6654 14.6792Z" fill="white"/>
</g>
<defs>
<clipPath id="clip0_2722_14793">
<rect width="22" height="22" fill="white"/>
</clipPath>
</defs>
</svg>
