<svg width="14" height="14" viewBox="0 0 14 14" fill="none" xmlns="http://www.w3.org/2000/svg">
<path fill-rule="evenodd" clip-rule="evenodd" d="M7.00617 7C6.68401 7 6.42284 7.26117 6.42284 7.58333C6.42284 7.9055 6.68401 8.16667 7.00617 8.16667L9.34698 8.16667C9.66914 8.16667 9.93031 7.9055 9.93031 7.58333C9.93031 7.26117 9.66914 7 9.34698 7H7.00617ZM4.66536 9.34128C4.3432 9.34128 4.08203 9.60245 4.08203 9.92462C4.08203 10.2468 4.3432 10.5079 4.66536 10.5079L9.34697 10.5079C9.66913 10.5079 9.9303 10.2468 9.9303 9.92461C9.9303 9.60245 9.66913 9.34128 9.34697 9.34128L4.66536 9.34128Z" fill="#78716C"/>
<path fill-rule="evenodd" clip-rule="evenodd" d="M9.87476 0.770056C10.1736 0.985042 10.4411 1.30055 10.4955 1.73306C10.5336 2.03654 10.5423 2.31133 10.5387 2.53513C11.9027 2.72862 12.9174 3.15219 13.4892 4.07554C14.1057 5.07115 14.0874 6.48228 13.8371 8.27253C13.5351 10.4329 13.0556 11.9622 11.8211 12.885C10.6193 13.7833 8.83187 14 6.26955 14C5.16685 14 4.23051 13.9585 3.44859 13.8465C2.66949 13.735 2.00691 13.5488 1.47434 13.2358C0.926346 12.9136 0.536831 12.469 0.29802 11.8902C0.0666036 11.3294 -0.0115983 10.6713 0.00135998 9.9279L0.00139201 9.91481L0.00164885 9.8638C0.0019407 9.81936 0.00252159 9.75443 0.00367781 9.67129C0.00598987 9.50503 0.0106047 9.26578 0.0198188 8.97173C0.0382318 8.38412 0.0750841 7.57534 0.148971 6.69177C0.222748 5.80951 0.33409 4.84475 0.502958 3.94747C0.670117 3.05926 0.900625 2.19767 1.22869 1.54407C1.40063 1.20151 1.71544 0.96024 2.02995 0.787972C2.3551 0.609874 2.7477 0.468753 3.16702 0.358037C4.00732 0.136172 5.0327 0.0162915 6.02769 0.00155038C7.01937 -0.0131419 8.02273 0.0759489 8.81202 0.296195C9.20472 0.405776 9.57868 0.557076 9.87476 0.770056ZM1.69506 3.9305C1.84857 3.17635 2.04013 2.52816 2.27138 2.06743C2.28944 2.03145 2.3655 1.93439 2.59041 1.8112C2.80467 1.69384 3.10002 1.58238 3.46485 1.48605C4.19288 1.29383 5.12064 1.18178 6.04497 1.16809C6.9726 1.15435 7.85473 1.24031 8.49844 1.41993C8.82224 1.51028 9.05166 1.61512 9.1935 1.71715C9.33058 1.81576 9.33735 1.87388 9.33786 1.87829L9.33788 1.87844C9.36311 2.07929 9.37213 2.26504 9.37276 2.42436C8.87346 2.39568 8.32672 2.38351 7.73046 2.38351C5.16814 2.38351 3.38072 2.60018 2.17888 3.49856C2.0028 3.63018 1.84209 3.77413 1.69506 3.9305ZM9.34085 2.95648L9.34086 2.95643L9.34085 2.95648ZM2.87739 4.43301C2.05601 5.04699 1.61784 6.13015 1.31833 8.27253C1.22838 8.91595 1.17647 9.46828 1.16793 9.94387C1.15597 10.6089 1.22983 11.0898 1.37649 11.4452C1.51628 11.784 1.73208 12.0339 2.06558 12.23C2.41452 12.4351 2.90964 12.5908 3.61391 12.6917C4.31535 12.7921 5.18806 12.8333 6.26955 12.8333C8.86184 12.8333 10.2686 12.5889 11.1226 11.9505C11.944 11.3365 12.3822 10.2534 12.6817 8.11099C12.9355 6.2952 12.8674 5.2875 12.4973 4.68973C12.1591 4.14355 11.4539 3.77995 9.86217 3.63059C9.26066 3.57415 8.55548 3.55018 7.73046 3.55018C5.13817 3.55018 3.73144 3.79461 2.87739 4.43301Z" fill="#78716C"/>
</svg>
