<svg width="22" height="22" viewBox="0 0 22 22" fill="none" xmlns="http://www.w3.org/2000/svg">
<path fill-rule="evenodd" clip-rule="evenodd" d="M3.70261 18.2974C2.52756 17.1223 1.83333 15.0234 1.83333 11C1.83333 6.97656 2.52756 4.87767 3.70261 3.70261C4.87767 2.52756 6.97656 1.83333 11 1.83333C15.0234 1.83333 17.1223 2.52756 18.2974 3.70261C19.4724 4.87767 20.1667 6.97656 20.1667 11C20.1667 15.0234 19.4724 17.1223 18.2974 18.2974C17.1223 19.4724 15.0234 20.1667 11 20.1667C6.97656 20.1667 4.87767 19.4724 3.70261 18.2974ZM11 22C2.75 22 0 19.25 0 11C0 2.75 2.75 0 11 0C19.25 0 22 2.75 22 11C22 19.25 19.25 22 11 22Z" fill="white"/>
<path fill-rule="evenodd" clip-rule="evenodd" d="M8.24984 11C8.24984 12.5188 9.48105 13.75 10.9998 13.75C12.5186 13.75 13.7498 12.5188 13.7498 11C13.7498 9.48122 12.5186 8.25001 10.9998 8.25001C9.48105 8.25001 8.24984 9.48122 8.24984 11ZM10.9998 15.5833C8.46853 15.5833 6.4165 13.5313 6.4165 11C6.4165 8.4687 8.46853 6.41667 10.9998 6.41667C13.5311 6.41667 15.5832 8.4687 15.5832 11C15.5832 13.5313 13.5311 15.5833 10.9998 15.5833Z" fill="white"/>
<path fill-rule="evenodd" clip-rule="evenodd" d="M5.67005 0.595078C6.67161 1.24964 7.33342 2.38084 7.33342 3.66662C7.33342 5.69166 5.6918 7.33329 3.66675 7.33329C2.38098 7.33329 1.24978 6.67147 0.595215 5.66991C0.926837 4.50992 1.407 3.55568 2.06017 2.78274C1.91565 3.04486 1.83342 3.34613 1.83342 3.66662C1.83342 4.67914 2.65423 5.49995 3.66675 5.49995C4.67928 5.49995 5.50009 4.67914 5.50009 3.66662C5.50009 2.6541 4.67928 1.83328 3.66675 1.83328C3.34627 1.83328 3.045 1.91552 2.78287 2.06003C3.55582 1.40686 4.51005 0.9267 5.67005 0.595078Z" fill="white"/>
<path fill-rule="evenodd" clip-rule="evenodd" d="M5.67005 21.4049C6.67161 20.7504 7.33342 19.6192 7.33342 18.3334C7.33342 16.3083 5.6918 14.6667 3.66675 14.6667C2.38098 14.6667 1.24978 15.3285 0.595215 16.3301C0.926837 17.4901 1.407 18.4443 2.06017 19.2173C1.91565 18.9552 1.83342 18.6539 1.83342 18.3334C1.83342 17.3209 2.65423 16.5001 3.66675 16.5001C4.67928 16.5001 5.50009 17.3209 5.50009 18.3334C5.50009 19.3459 4.67928 20.1667 3.66675 20.1667C3.34627 20.1667 3.045 20.0845 2.78287 19.94C3.55582 20.5931 4.51005 21.0733 5.67005 21.4049Z" fill="white"/>
<path fill-rule="evenodd" clip-rule="evenodd" d="M16.33 0.595078C15.3284 1.24964 14.6666 2.38084 14.6666 3.66662C14.6666 5.69166 16.3082 7.33329 18.3332 7.33329C19.619 7.33329 20.7502 6.67147 21.4048 5.66991C21.0732 4.50992 20.593 3.55568 19.9398 2.78274C20.0843 3.04486 20.1666 3.34613 20.1666 3.66662C20.1666 4.67914 19.3458 5.49995 18.3332 5.49995C17.3207 5.49995 16.4999 4.67914 16.4999 3.66662C16.4999 2.6541 17.3207 1.83328 18.3332 1.83328C18.6537 1.83328 18.955 1.91552 19.2171 2.06003C18.4442 1.40686 17.4899 0.9267 16.33 0.595078Z" fill="white"/>
<path fill-rule="evenodd" clip-rule="evenodd" d="M16.33 21.4049C15.3284 20.7504 14.6666 19.6192 14.6666 18.3334C14.6666 16.3083 16.3082 14.6667 18.3332 14.6667C19.619 14.6667 20.7502 15.3285 21.4048 16.3301C21.0732 17.4901 20.593 18.4443 19.9398 19.2173C20.0843 18.9552 20.1666 18.6539 20.1666 18.3334C20.1666 17.3209 19.3458 16.5001 18.3332 16.5001C17.3207 16.5001 16.4999 17.3209 16.4999 18.3334C16.4999 19.3459 17.3207 20.1667 18.3332 20.1667C18.6537 20.1667 18.955 20.0845 19.2171 19.94C18.4442 20.5931 17.4899 21.0733 16.33 21.4049Z" fill="white"/>
</svg>
