<svg width="22" height="22" viewBox="0 0 22 22" fill="none" xmlns="http://www.w3.org/2000/svg">
<path fill-rule="evenodd" clip-rule="evenodd" d="M13.2735 5.50018C13.6142 5.4935 13.9305 5.67634 14.0947 5.97491L16.3543 10.0833H17.4165C17.9228 10.0833 18.3332 10.4937 18.3332 11C18.3332 11.5063 17.9228 11.9167 17.4165 11.9167H15.8123C15.478 11.9167 15.1702 11.7347 15.0091 11.4418L13.3302 8.38908L9.52806 15.9933C9.37568 16.2981 9.06681 16.4931 8.72613 16.4998C8.38545 16.5065 8.06918 16.3237 7.90497 16.0251L5.64534 11.9167H4.58317C4.07691 11.9167 3.6665 11.5063 3.6665 11C3.6665 10.4937 4.07691 10.0833 4.58317 10.0833H6.18734C6.52164 10.0833 6.82943 10.2653 6.99054 10.5582L8.66951 13.6109L12.4716 6.00672C12.624 5.70195 12.9329 5.50685 13.2735 5.50018Z" fill="white"/>
<path fill-rule="evenodd" clip-rule="evenodd" d="M2.23457 16.1426C1.95483 14.8838 1.83333 13.2228 1.83333 11C1.83333 8.77722 1.95483 7.11615 2.23457 5.85744C2.50968 4.61954 2.91288 3.88597 3.39943 3.39943C3.88597 2.91288 4.61954 2.50968 5.85743 2.23457C7.11615 1.95483 8.77722 1.83333 11 1.83333C13.2228 1.83333 14.8838 1.95483 16.1426 2.23457C17.3805 2.50968 18.114 2.91288 18.6006 3.39943C19.0871 3.88597 19.4903 4.61954 19.7654 5.85744C20.0452 7.11615 20.1667 8.77722 20.1667 11C20.1667 13.2228 20.0452 14.8838 19.7654 16.1426C19.4903 17.3805 19.0871 18.114 18.6006 18.6006C18.114 19.0871 17.3805 19.4903 16.1426 19.7654C14.8838 20.0452 13.2228 20.1667 11 20.1667C8.77722 20.1667 7.11615 20.0452 5.85743 19.7654C4.61954 19.4903 3.88597 19.0871 3.39943 18.6006C2.91288 18.114 2.50968 17.3805 2.23457 16.1426ZM11 22C1.9415 22 0 20.0585 0 11C0 1.9415 1.9415 0 11 0C20.0585 0 22 1.9415 22 11C22 20.0585 20.0585 22 11 22Z" fill="white"/>
</svg>
