<svg width="38" height="39" viewBox="0 0 38 39" fill="none" xmlns="http://www.w3.org/2000/svg">
<rect y="0.666504" width="38" height="38" rx="4" fill="#0866C6"/>
<path d="M6 11.6665H28C28.5523 11.6665 29 12.1142 29 12.6665V14.6665C29 15.2188 28.5523 15.6665 28 15.6665H6V11.6665Z" fill="white"/>
<path d="M6 17.6665H24C24.5523 17.6665 25 18.1142 25 18.6665V20.6665C25 21.2188 24.5523 21.6665 24 21.6665H6V17.6665Z" fill="white"/>
<path d="M6 23.6665H25C25.5523 23.6665 26 24.1142 26 24.6665V26.6665C26 27.2188 25.5523 27.6665 25 27.6665H6V23.6665Z" fill="white"/>
</svg>
