<svg width="30" height="30" viewBox="0 0 30 30" fill="none" xmlns="http://www.w3.org/2000/svg">
<path fill-rule="evenodd" clip-rule="evenodd" d="M3.04714 22.0126C2.66567 20.2962 2.5 18.0311 2.5 15C2.5 11.9689 2.66567 9.70384 3.04714 7.98741C3.42229 6.29937 3.9721 5.29906 4.63558 4.63558C5.29906 3.9721 6.29937 3.42229 7.98741 3.04714C9.70384 2.66567 11.9689 2.5 15 2.5C18.0311 2.5 20.2962 2.66567 22.0126 3.04714C23.7006 3.42229 24.7009 3.9721 25.3644 4.63558C26.0279 5.29906 26.5777 6.29937 26.9529 7.98741C27.3343 9.70384 27.5 11.9689 27.5 15C27.5 18.0311 27.3343 20.2962 26.9529 22.0126C26.5777 23.7006 26.0279 24.7009 25.3644 25.3644C24.7009 26.0279 23.7006 26.5777 22.0126 26.9529C20.2962 27.3343 18.0311 27.5 15 27.5C11.9689 27.5 9.70384 27.3343 7.98741 26.9529C6.29937 26.5777 5.29906 26.0279 4.63558 25.3644C3.9721 24.7009 3.42229 23.7006 3.04714 22.0126ZM15 30C2.6475 30 0 27.3525 0 15C0 2.6475 2.6475 0 15 0C27.3525 0 30 2.6475 30 15C30 27.3525 27.3525 30 15 30Z" fill="#B5BEC7"/>
<path fill-rule="evenodd" clip-rule="evenodd" d="M6.41813 16.707C6.08051 15.0097 6.25379 13.2504 6.91606 11.6515C7.57832 10.0527 8.69983 8.6861 10.1388 7.72463C11.4968 6.81725 13.0799 6.30915 14.7084 6.25485C15.58 6.2258 16.25 6.93286 16.25 7.74999L16.25 13.75L22.25 13.75C23.0671 13.75 23.7742 14.42 23.7451 15.2916C23.6909 16.9201 23.1827 18.5032 22.2754 19.8612C21.3139 21.3002 19.9473 22.4217 18.3485 23.0839C16.7496 23.7462 14.9903 23.9195 13.293 23.5819C11.5956 23.2442 10.0365 22.4109 8.81282 21.1872C7.58911 19.9635 6.75575 18.4044 6.41813 16.707ZM9.22576 12.6082C8.75271 13.7503 8.62894 15.0069 8.8701 16.2193C9.11125 17.4317 9.70651 18.5453 10.5806 19.4194C11.4547 20.2935 12.5683 20.8887 13.7807 21.1299C14.9931 21.3711 16.2497 21.2473 17.3918 20.7742C18.5338 20.3012 19.5099 19.5001 20.1967 18.4723C20.649 17.7953 20.9625 17.04 21.1237 16.25L15.25 16.25C14.4216 16.25 13.75 15.5784 13.75 14.75L13.75 8.87627C12.96 9.03753 12.2047 9.35096 11.5277 9.80331C10.4999 10.4901 9.6988 11.4662 9.22576 12.6082Z" fill="#B5BEC7"/>
</svg>
