<svg width="15" height="14" viewBox="0 0 15 14" fill="none" xmlns="http://www.w3.org/2000/svg">
<path fill-rule="evenodd" clip-rule="evenodd" d="M1.2755 4.57099C1.20865 4.27182 1.17297 3.84206 1.17297 3.20817C1.17297 2.57428 1.20865 2.14452 1.2755 1.84535C1.33939 1.55943 1.41514 1.469 1.44613 1.43819C1.47711 1.40737 1.56803 1.33202 1.85549 1.26848C2.15628 1.20199 2.58836 1.1665 3.22568 1.1665C3.86299 1.1665 4.29507 1.20199 4.59586 1.26848C4.88332 1.33202 4.97424 1.40737 5.00523 1.43819C5.03621 1.469 5.11196 1.55943 5.17585 1.84535C5.2427 2.14452 5.27838 2.57428 5.27838 3.20817C5.27838 3.84206 5.2427 4.27182 5.17585 4.57099C5.11196 4.85691 5.03621 4.94734 5.00523 4.97815C4.97424 5.00897 4.88332 5.08432 4.59586 5.14786C4.29507 5.21435 3.86299 5.24984 3.22568 5.24984C2.58836 5.24984 2.15628 5.21435 1.85549 5.14786C1.56803 5.08432 1.47711 5.00897 1.44613 4.97815C1.41514 4.94734 1.33939 4.85691 1.2755 4.57099ZM3.22568 6.4165C0.569332 6.4165 0 5.85023 0 3.20817C0 0.566108 0.569332 -0.000163198 3.22568 -0.000163198C5.88202 -0.000163198 6.45135 0.566108 6.45135 3.20817C6.45135 5.85023 5.88202 6.4165 3.22568 6.4165Z" fill="#A2A9B6"/>
<path fill-rule="evenodd" clip-rule="evenodd" d="M1.2755 12.1545C1.20865 11.8553 1.17297 11.4256 1.17297 10.7917C1.17297 10.1578 1.20865 9.72802 1.2755 9.42885C1.33939 9.14293 1.41514 9.0525 1.44613 9.02168C1.47711 8.99087 1.56803 8.91552 1.85549 8.85198C2.15628 8.78549 2.58836 8.75 3.22568 8.75C3.86299 8.75 4.29507 8.78549 4.59586 8.85198C4.88332 8.91552 4.97424 8.99087 5.00523 9.02168C5.03621 9.0525 5.11196 9.14293 5.17585 9.42885C5.2427 9.72802 5.27838 10.1578 5.27838 10.7917C5.27838 11.4256 5.2427 11.8553 5.17585 12.1545C5.11196 12.4404 5.03621 12.5308 5.00523 12.5616C4.97424 12.5925 4.88332 12.6678 4.59586 12.7314C4.29507 12.7978 3.86299 12.8333 3.22568 12.8333C2.58836 12.8333 2.15628 12.7978 1.85549 12.7314C1.56803 12.6678 1.47711 12.5925 1.44613 12.5616C1.41514 12.5308 1.33939 12.4404 1.2755 12.1545ZM3.22568 14C0.569332 14 0 13.4337 0 10.7917C0 8.1496 0.569332 7.58333 3.22568 7.58333C5.88202 7.58333 6.45135 8.1496 6.45135 10.7917C6.45135 13.4337 5.88202 14 3.22568 14Z" fill="#A2A9B6"/>
<path fill-rule="evenodd" clip-rule="evenodd" d="M8.9005 4.57099C8.83365 4.27182 8.79797 3.84206 8.79797 3.20817C8.79797 2.57428 8.83365 2.14452 8.9005 1.84535C8.96439 1.55943 9.04014 1.469 9.07113 1.43819C9.10211 1.40737 9.19303 1.33202 9.48049 1.26848C9.78128 1.20199 10.2134 1.1665 10.8507 1.1665C11.488 1.1665 11.9201 1.20199 12.2209 1.26848C12.5083 1.33202 12.5992 1.40737 12.6302 1.43819C12.6612 1.469 12.737 1.55943 12.8009 1.84535C12.8677 2.14452 12.9034 2.57428 12.9034 3.20817C12.9034 3.84206 12.8677 4.27182 12.8009 4.57099C12.737 4.85691 12.6612 4.94734 12.6302 4.97815C12.5992 5.00897 12.5083 5.08432 12.2209 5.14786C11.9201 5.21435 11.488 5.24984 10.8507 5.24984C10.2134 5.24984 9.78128 5.21435 9.48049 5.14786C9.19303 5.08432 9.10211 5.00897 9.07113 4.97815C9.04014 4.94734 8.96439 4.85691 8.9005 4.57099ZM10.8507 6.4165C8.19433 6.4165 7.625 5.85023 7.625 3.20817C7.625 0.566108 8.19433 -0.000163198 10.8507 -0.000163198C13.507 -0.000163198 14.0764 0.566108 14.0764 3.20817C14.0764 5.85023 13.507 6.4165 10.8507 6.4165Z" fill="#A2A9B6"/>
<path fill-rule="evenodd" clip-rule="evenodd" d="M8.9005 12.1545C8.83365 11.8553 8.79797 11.4256 8.79797 10.7917C8.79797 10.1578 8.83365 9.72802 8.9005 9.42885C8.96439 9.14293 9.04014 9.0525 9.07113 9.02168C9.10211 8.99087 9.19303 8.91552 9.48049 8.85198C9.78128 8.78549 10.2134 8.75 10.8507 8.75C11.488 8.75 11.9201 8.78549 12.2209 8.85198C12.5083 8.91552 12.5992 8.99087 12.6302 9.02168C12.6612 9.0525 12.737 9.14293 12.8009 9.42885C12.8677 9.72802 12.9034 10.1578 12.9034 10.7917C12.9034 11.4256 12.8677 11.8553 12.8009 12.1545C12.737 12.4404 12.6612 12.5308 12.6302 12.5616C12.5992 12.5925 12.5083 12.6678 12.2209 12.7314C11.9201 12.7978 11.488 12.8333 10.8507 12.8333C10.2134 12.8333 9.78128 12.7978 9.48049 12.7314C9.19303 12.6678 9.10211 12.5925 9.07113 12.5616C9.04014 12.5308 8.96439 12.4404 8.9005 12.1545ZM10.8507 14C8.19433 14 7.625 13.4337 7.625 10.7917C7.625 8.1496 8.19433 7.58333 10.8507 7.58333C13.507 7.58333 14.0764 8.1496 14.0764 10.7917C14.0764 13.4337 13.507 14 10.8507 14Z" fill="#A2A9B6"/>
</svg>
