<svg width="22" height="14" viewBox="0 0 22 14" fill="none" xmlns="http://www.w3.org/2000/svg">
<path fill-rule="evenodd" clip-rule="evenodd" d="M1.2693 4.57099C1.20278 4.27182 1.16727 3.84206 1.16727 3.20817C1.16727 2.57428 1.20278 2.14452 1.2693 1.84536C1.33288 1.55943 1.40827 1.46901 1.4391 1.43819C1.46993 1.40737 1.56041 1.33202 1.84648 1.26848C2.1458 1.20199 2.57578 1.1665 3.21 1.1665C3.84422 1.1665 4.2742 1.20199 4.57352 1.26848C4.85959 1.33202 4.95007 1.40737 4.9809 1.43819C5.01173 1.46901 5.08712 1.55943 5.1507 1.84536C5.21722 2.14452 5.25273 2.57428 5.25273 3.20817C5.25273 3.84206 5.21722 4.27182 5.1507 4.57099C5.08712 4.85691 5.01173 4.94734 4.9809 4.97815C4.95007 5.00897 4.85959 5.08432 4.57352 5.14786C4.2742 5.21435 3.84422 5.24984 3.21 5.24984C2.57578 5.24984 2.1458 5.21435 1.84648 5.14786C1.56041 5.08432 1.46993 5.00897 1.4391 4.97815C1.40827 4.94734 1.33288 4.85691 1.2693 4.57099ZM3.21 6.4165C0.566565 6.4165 0 5.85023 0 3.20817C0 0.566108 0.566565 -0.000162601 3.21 -0.000162601C5.85344 -0.000162601 6.42 0.566108 6.42 3.20817C6.42 5.85023 5.85344 6.4165 3.21 6.4165Z" fill="#57534E"/>
<path fill-rule="evenodd" clip-rule="evenodd" d="M1.2693 11.988C1.20278 11.6888 1.16727 11.2591 1.16727 10.6252C1.16727 9.99128 1.20278 9.56152 1.2693 9.26235C1.33288 8.97643 1.40827 8.886 1.4391 8.85518C1.46993 8.82436 1.56041 8.74902 1.84648 8.68547C2.1458 8.61898 2.57578 8.5835 3.21 8.5835C3.84422 8.5835 4.2742 8.61898 4.57352 8.68547C4.85959 8.74902 4.95007 8.82436 4.9809 8.85518C5.01173 8.886 5.08712 8.97643 5.1507 9.26235C5.21722 9.56152 5.25273 9.99128 5.25273 10.6252C5.25273 11.2591 5.21722 11.6888 5.1507 11.988C5.08712 12.2739 5.01173 12.3643 4.9809 12.3951C4.95007 12.426 4.85959 12.5013 4.57352 12.5649C4.2742 12.6313 3.84422 12.6668 3.21 12.6668C2.57578 12.6668 2.1458 12.6313 1.84648 12.5649C1.56041 12.5013 1.46993 12.426 1.4391 12.3951C1.40827 12.3643 1.33288 12.2739 1.2693 11.988ZM3.21 13.8335C0.566565 13.8335 0 13.2672 0 10.6252C0 7.9831 0.566565 7.41683 3.21 7.41683C5.85344 7.41683 6.42 7.9831 6.42 10.6252C6.42 13.2672 5.85344 13.8335 3.21 13.8335Z" fill="#57534E"/>
<path fill-rule="evenodd" clip-rule="evenodd" d="M8.69118 4.57099C8.62465 4.27182 8.58915 3.84206 8.58915 3.20817C8.58915 2.57428 8.62465 2.14452 8.69118 1.84536C8.75475 1.55943 8.83014 1.46901 8.86097 1.43819C8.89181 1.40737 8.98228 1.33202 9.26835 1.26848C9.56768 1.20199 9.99766 1.1665 10.6319 1.1665C11.2661 1.1665 11.6961 1.20199 11.9954 1.26848C12.2815 1.33202 12.3719 1.40737 12.4028 1.43819C12.4336 1.46901 12.509 1.55943 12.5726 1.84536C12.6391 2.14452 12.6746 2.57428 12.6746 3.20817C12.6746 3.84206 12.6391 4.27182 12.5726 4.57099C12.509 4.85691 12.4336 4.94734 12.4028 4.97815C12.3719 5.00897 12.2815 5.08432 11.9954 5.14786C11.6961 5.21435 11.2661 5.24984 10.6319 5.24984C9.99766 5.24984 9.56768 5.21435 9.26835 5.14786C8.98228 5.08432 8.89181 5.00897 8.86097 4.97815C8.83014 4.94734 8.75475 4.85691 8.69118 4.57099ZM10.6319 6.4165C7.98844 6.4165 7.42188 5.85023 7.42188 3.20817C7.42188 0.566108 7.98844 -0.000162601 10.6319 -0.000162601C13.2753 -0.000162601 13.8419 0.566108 13.8419 3.20817C13.8419 5.85023 13.2753 6.4165 10.6319 6.4165Z" fill="#57534E"/>
<path fill-rule="evenodd" clip-rule="evenodd" d="M8.69118 11.988C8.62465 11.6888 8.58915 11.2591 8.58915 10.6252C8.58915 9.99128 8.62465 9.56152 8.69118 9.26235C8.75475 8.97643 8.83014 8.886 8.86097 8.85518C8.89181 8.82436 8.98228 8.74902 9.26835 8.68547C9.56768 8.61898 9.99766 8.5835 10.6319 8.5835C11.2661 8.5835 11.6961 8.61898 11.9954 8.68547C12.2815 8.74902 12.3719 8.82436 12.4028 8.85518C12.4336 8.886 12.509 8.97643 12.5726 9.26235C12.6391 9.56152 12.6746 9.99128 12.6746 10.6252C12.6746 11.2591 12.6391 11.6888 12.5726 11.988C12.509 12.2739 12.4336 12.3643 12.4028 12.3951C12.3719 12.426 12.2815 12.5013 11.9954 12.5649C11.6961 12.6313 11.2661 12.6668 10.6319 12.6668C9.99766 12.6668 9.56768 12.6313 9.26835 12.5649C8.98228 12.5013 8.89181 12.426 8.86097 12.3951C8.83014 12.3643 8.75475 12.2739 8.69118 11.988ZM10.6319 13.8335C7.98844 13.8335 7.42188 13.2672 7.42188 10.6252C7.42188 7.9831 7.98844 7.41683 10.6319 7.41683C13.2753 7.41683 13.8419 7.9831 13.8419 10.6252C13.8419 13.2672 13.2753 13.8335 10.6319 13.8335Z" fill="#57534E"/>
<path fill-rule="evenodd" clip-rule="evenodd" d="M16.1091 4.57099C16.0426 4.27182 16.0071 3.84206 16.0071 3.20817C16.0071 2.57428 16.0426 2.14452 16.1091 1.84536C16.1727 1.55943 16.2481 1.46901 16.2789 1.43819C16.3098 1.40737 16.4003 1.33202 16.6863 1.26848C16.9856 1.20199 17.4156 1.1665 18.0498 1.1665C18.6841 1.1665 19.114 1.20199 19.4134 1.26848C19.6994 1.33202 19.7899 1.40737 19.8207 1.43819C19.8516 1.46901 19.927 1.55943 19.9905 1.84536C20.0571 2.14452 20.0926 2.57428 20.0926 3.20817C20.0926 3.84206 20.0571 4.27182 19.9905 4.57099C19.927 4.85691 19.8516 4.94734 19.8207 4.97815C19.7899 5.00897 19.6994 5.08432 19.4134 5.14786C19.114 5.21435 18.6841 5.24984 18.0498 5.24984C17.4156 5.24984 16.9856 5.21435 16.6863 5.14786C16.4003 5.08432 16.3098 5.00897 16.2789 4.97815C16.2481 4.94734 16.1727 4.85691 16.1091 4.57099ZM18.0498 6.4165C15.4064 6.4165 14.8398 5.85023 14.8398 3.20817C14.8398 0.566108 15.4064 -0.000162601 18.0498 -0.000162601C20.6933 -0.000162601 21.2598 0.566108 21.2598 3.20817C21.2598 5.85023 20.6933 6.4165 18.0498 6.4165Z" fill="#57534E"/>
<path fill-rule="evenodd" clip-rule="evenodd" d="M16.1091 11.988C16.0426 11.6888 16.0071 11.2591 16.0071 10.6252C16.0071 9.99128 16.0426 9.56152 16.1091 9.26235C16.1727 8.97643 16.2481 8.886 16.2789 8.85518C16.3098 8.82436 16.4003 8.74902 16.6863 8.68547C16.9856 8.61898 17.4156 8.5835 18.0498 8.5835C18.6841 8.5835 19.114 8.61898 19.4134 8.68547C19.6994 8.74902 19.7899 8.82436 19.8207 8.85518C19.8516 8.886 19.927 8.97643 19.9905 9.26235C20.0571 9.56152 20.0926 9.99128 20.0926 10.6252C20.0926 11.2591 20.0571 11.6888 19.9905 11.988C19.927 12.2739 19.8516 12.3643 19.8207 12.3951C19.7899 12.426 19.6994 12.5013 19.4134 12.5649C19.114 12.6313 18.6841 12.6668 18.0498 12.6668C17.4156 12.6668 16.9856 12.6313 16.6863 12.5649C16.4003 12.5013 16.3098 12.426 16.2789 12.3951C16.2481 12.3643 16.1727 12.2739 16.1091 11.988ZM18.0498 13.8335C15.4064 13.8335 14.8398 13.2672 14.8398 10.6252C14.8398 7.9831 15.4064 7.41683 18.0498 7.41683C20.6933 7.41683 21.2598 7.9831 21.2598 10.6252C21.2598 13.2672 20.6933 13.8335 18.0498 13.8335Z" fill="#57534E"/>
</svg>
