<svg width="22" height="22" viewBox="0 0 22 22" fill="none" xmlns="http://www.w3.org/2000/svg">
<path fill-rule="evenodd" clip-rule="evenodd" d="M16.1939 2.18227C14.9122 1.93566 13.2317 1.83333 11 1.83333C8.77213 1.83333 7.09393 1.94139 5.815 2.19404C4.54596 2.44474 3.80069 2.8133 3.32106 3.23964C2.37782 4.07808 1.83333 5.71012 1.83333 9.77779C1.83333 12.3543 2.07723 14.1093 2.61389 15.1828C2.85831 15.6717 3.13817 15.9647 3.45158 16.1513C3.77242 16.3423 4.26089 16.5 5.04189 16.5C6.35943 16.5 7.42998 16.7982 8.30116 17.3885C9.13937 17.9564 9.62863 18.6916 9.9411 19.1833C9.98696 19.2554 10.0286 19.3212 10.0667 19.3813C10.3368 19.8077 10.4263 19.9489 10.5528 20.0625C10.5543 20.0638 10.5559 20.0654 10.5578 20.0673C10.5844 20.0932 10.6596 20.1667 11.0003 20.1667C11.341 20.1667 11.4162 20.0932 11.4427 20.0673C11.4446 20.0655 11.4462 20.0639 11.4477 20.0626C11.5743 19.949 11.6637 19.8078 11.9339 19.3812C11.972 19.3211 12.0136 19.2554 12.0594 19.1833C12.3718 18.6917 12.8611 17.9565 13.6993 17.3885C14.5704 16.7982 15.641 16.5 16.9586 16.5C17.7492 16.5 18.2419 16.3448 18.5631 16.1575C18.8738 15.9764 19.1486 15.6932 19.3892 15.2162C19.9214 14.1607 20.1667 12.4124 20.1667 9.77779C20.1667 5.654 19.6193 4.03252 18.6847 3.20866C18.2088 2.78922 17.4664 2.42708 16.1939 2.18227ZM22 9.77779C22 1.62966 20.0585 0 11 0C1.9415 0 0 1.72578 0 9.77779C0 14.9698 0.916891 18.3333 5.04189 18.3333C7.24635 18.3333 7.90211 19.3805 8.51275 20.3556C9.04474 21.2051 9.54249 22 11.0002 22C12.4581 22 12.9558 21.2052 13.4878 20.3556C14.0984 19.3805 14.7541 18.3333 16.9586 18.3333C21.0836 18.3333 22 15.0741 22 9.77779Z" fill="white"/>
<path fill-rule="evenodd" clip-rule="evenodd" d="M5.5 8.25C5.5 7.74374 5.91041 7.33333 6.41667 7.33333H10.0833C10.5896 7.33333 11 7.74374 11 8.25C11 8.75626 10.5896 9.16667 10.0833 9.16667H6.41667C5.91041 9.16667 5.5 8.75626 5.5 8.25Z" fill="white"/>
<path fill-rule="evenodd" clip-rule="evenodd" d="M5.5 11.9167C5.5 11.4104 5.91041 11 6.41667 11H15.5833C16.0896 11 16.5 11.4104 16.5 11.9167C16.5 12.4229 16.0896 12.8333 15.5833 12.8333H6.41667C5.91041 12.8333 5.5 12.4229 5.5 11.9167Z" fill="white"/>
</svg>
