<svg width="22" height="22" viewBox="0 0 22 22" fill="none" xmlns="http://www.w3.org/2000/svg">
<g clip-path="url(#clip0_2471_96)">
<path fill-rule="evenodd" clip-rule="evenodd" d="M1.83447 13.7601C1.80099 13.2686 1.39833 12.8793 0.905678 12.8793C0.385396 12.8793 -0.0325008 13.315 0.00199242 13.8342C0.39146 19.6958 2.30418 21.6085 8.16583 21.998C8.68497 22.0325 9.12072 21.6146 9.12072 21.0943C9.12072 20.6017 8.73136 20.199 8.23985 20.1655C7.28991 20.1008 6.48456 19.9952 5.79822 19.8426C4.55511 19.5664 3.81763 19.1613 3.32818 18.6718C2.83873 18.1824 2.43365 17.4449 2.15738 16.2018C2.00484 15.5154 1.89919 14.7101 1.83447 13.7601ZM20.0868 13.7601C20.1203 13.2686 20.5229 12.8793 21.0156 12.8793C21.5359 12.8793 21.9538 13.315 21.9193 13.8342C21.5298 19.6958 19.6171 21.6085 13.7554 21.998C13.2363 22.0325 12.8005 21.6146 12.8005 21.0943C12.8005 20.6017 13.1899 20.199 13.6814 20.1655C14.6313 20.1008 15.4367 19.9952 16.123 19.8426C17.3661 19.5664 18.1036 19.1613 18.5931 18.6718C19.0825 18.1824 19.4876 17.4449 19.7639 16.2018C19.9164 15.5154 20.0221 14.7101 20.0868 13.7601ZM22 11.0815C22 11.0675 22 11.0534 22 11.0394C22 11.0253 22 11.0113 22 10.9973V11.0815ZM21.9193 8.2446C21.9538 8.76373 21.5359 9.19948 21.0156 9.19948C20.5229 9.19948 20.1203 8.81012 20.0868 8.31861C20.0221 7.36866 19.9164 6.5633 19.7639 5.87697C19.4876 4.63385 19.0825 3.89637 18.5931 3.40692C18.1036 2.91747 17.3661 2.51239 16.123 2.23612C15.4367 2.08359 14.6313 1.97793 13.6814 1.91321C13.1899 1.87973 12.8005 1.47707 12.8005 0.984419C12.8005 0.464138 13.2363 0.0462414 13.7554 0.0807343C19.6171 0.4702 21.5298 2.38292 21.9193 8.2446ZM1.83447 8.31861C1.80099 8.81012 1.39833 9.19948 0.905678 9.19948C0.385396 9.19948 -0.0325008 8.76373 0.00199232 8.24459C0.39146 2.38293 2.30418 0.470207 8.16584 0.0807363C8.68497 0.0462429 9.12072 0.464139 9.12072 0.984422C9.12072 1.47707 8.73136 1.87973 8.23985 1.91322C7.28991 1.97793 6.48456 2.08359 5.79822 2.23612C4.55511 2.51239 3.81763 2.91747 3.32818 3.40692C2.83873 3.89637 2.43365 4.63385 2.15738 5.87697C2.00484 6.5633 1.89919 7.36866 1.83447 8.31861ZM10.9606 0L10.978 2.36985e-06H10.9433L10.9606 0Z" fill="white"/>
<path fill-rule="evenodd" clip-rule="evenodd" d="M10.9997 13.8286C12.5185 13.8286 13.7497 12.5974 13.7497 11.0786C13.7497 9.55989 12.5185 8.3287 10.9997 8.3287C9.48099 8.3287 8.2498 9.55989 8.2498 11.0786C8.2498 12.5974 9.48099 13.8286 10.9997 13.8286ZM10.9997 15.6619C13.531 15.6619 15.583 13.6099 15.583 11.0786C15.583 8.54739 13.531 6.49541 10.9997 6.49541C8.46849 6.49541 6.4165 8.54739 6.4165 11.0786C6.4165 13.6099 8.46849 15.6619 10.9997 15.6619Z" fill="white"/>
</g>
<defs>
<clipPath id="clip0_2471_96">
<rect width="22" height="22" fill="white"/>
</clipPath>
</defs>
</svg>
