<svg width="16" height="16" viewBox="0 0 16 16" fill="none" xmlns="http://www.w3.org/2000/svg">
<path fill-rule="evenodd" clip-rule="evenodd" d="M6.20078 2.5998C4.21256 2.5998 2.60078 4.21158 2.60078 6.1998C2.60078 8.18803 4.21256 9.7998 6.20078 9.7998C8.18901 9.7998 9.80078 8.18803 9.80078 6.1998C9.80078 4.21158 8.18901 2.5998 6.20078 2.5998ZM0.800781 6.1998C0.800781 3.21747 3.21844 0.799805 6.20078 0.799805C9.18312 0.799805 11.6008 3.21747 11.6008 6.1998C11.6008 7.36605 11.2311 8.44595 10.6025 9.32868L14.9372 13.6634C15.2886 14.0149 15.2886 14.5847 14.9372 14.9362C14.5857 15.2877 14.0159 15.2877 13.6644 14.9362L9.32966 10.6015C8.44693 11.2301 7.36703 11.5998 6.20078 11.5998C3.21844 11.5998 0.800781 9.18214 0.800781 6.1998Z" fill="white"/>
</svg>
