<svg width="10" height="10" viewBox="0 0 10 10" fill="none" xmlns="http://www.w3.org/2000/svg">
<path fill-rule="evenodd" clip-rule="evenodd" d="M4.99891 5.9432L1.47016 9.47195C1.43655 9.50332 1.40292 9.53272 1.36439 9.55799C1.28818 9.60799 1.20181 9.64203 1.11201 9.65753C1.07211 9.6644 1.06184 9.66406 1.0215 9.66683C1.0063 9.66683 0.991136 9.66683 0.975968 9.66683C0.935633 9.66406 0.925366 9.6644 0.885465 9.65753C0.810628 9.64463 0.738158 9.61886 0.671989 9.58166C0.619053 9.55189 0.570251 9.51489 0.527316 9.47195C0.397644 9.34228 0.326174 9.16101 0.332408 8.97777C0.334508 8.91706 0.344908 8.85673 0.363276 8.79883C0.386243 8.72649 0.421645 8.65819 0.467513 8.59768C0.491981 8.56542 0.499715 8.55865 0.527316 8.52911L4.05603 5.00036L0.527316 1.47161C0.499715 1.44204 0.491981 1.43531 0.467513 1.40301C0.421645 1.34254 0.386243 1.27424 0.363276 1.20187C0.335708 1.115 0.326207 1.02266 0.335541 0.931988C0.359109 0.702579 0.504115 0.497136 0.712391 0.398099C0.767226 0.372031 0.825595 0.353497 0.885465 0.343163C0.960268 0.330296 1.0372 0.330296 1.11201 0.343163C1.21681 0.361264 1.31682 0.404666 1.40155 0.468969C1.43385 0.493436 1.44059 0.50117 1.47016 0.528771L4.99891 4.05749L8.52766 0.528771C8.55719 0.50117 8.56396 0.493436 8.59623 0.468969C8.65673 0.4231 8.72503 0.387698 8.79737 0.364731C8.88424 0.337163 8.97661 0.327663 9.06725 0.336996C9.14275 0.34473 9.21686 0.365497 9.28539 0.398099C9.34023 0.424167 9.39146 0.457768 9.43723 0.49767C9.61104 0.649243 9.69524 0.886186 9.65607 1.11346C9.63801 1.21827 9.59457 1.31827 9.5303 1.40301C9.50583 1.43531 9.4981 1.44204 9.4705 1.47161L5.94175 5.00036L9.4705 8.52911C9.4981 8.55865 9.50583 8.56542 9.5303 8.59768C9.57617 8.65819 9.61157 8.72649 9.63454 8.79883C9.65291 8.85673 9.66331 8.91706 9.66537 8.97777C9.67164 9.16101 9.60014 9.34228 9.4705 9.47195C9.42756 9.51489 9.37876 9.55189 9.32583 9.58166C9.25966 9.61886 9.18715 9.64463 9.11235 9.65753C9.07245 9.6644 9.06218 9.66406 9.02185 9.66683C9.00665 9.66683 8.99148 9.66683 8.97631 9.66683C8.93598 9.66406 8.92571 9.6644 8.88581 9.65753C8.796 9.64203 8.70963 9.60799 8.63343 9.55799C8.59486 9.53272 8.56123 9.50332 8.52766 9.47195L4.99891 5.9432Z" fill="#002449"/>
</svg>
