<svg width="22" height="22" viewBox="0 0 22 22" fill="none" xmlns="http://www.w3.org/2000/svg">
<path fill-rule="evenodd" clip-rule="evenodd" d="M21.9684 12.8334C21.9901 12.2573 22 11.6468 22 11C22 1.9415 20.0585 0 11 0C1.9415 0 0 1.9415 0 11C0 20.0585 1.9415 22 11 22C11.6468 22 12.2573 21.9901 12.8334 21.9684C13.1492 21.9565 13.4546 21.9411 13.75 21.9218C14.0659 21.9012 14.3703 21.8762 14.6636 21.8464C19.537 21.3515 21.3515 19.537 21.8464 14.6636C21.8762 14.3703 21.9012 14.0659 21.9218 13.75C21.9411 13.4546 21.9565 13.1492 21.9684 12.8334ZM20.1338 12.8316C20.1562 12.2644 20.1667 11.6551 20.1667 11C20.1667 8.77722 20.0452 7.11615 19.7654 5.85744C19.4903 4.61954 19.0871 3.88597 18.6006 3.39943C18.114 2.91288 17.3805 2.50968 16.1426 2.23457C14.8838 1.95483 13.2228 1.83333 11 1.83333C8.77722 1.83333 7.11615 1.95483 5.85743 2.23457C4.61954 2.50968 3.88597 2.91288 3.39943 3.39943C2.91288 3.88597 2.50968 4.61954 2.23457 5.85744C1.95483 7.11615 1.83333 8.77722 1.83333 11C1.83333 13.2228 1.95483 14.8838 2.23457 16.1426C2.50968 17.3805 2.91288 18.114 3.39943 18.6006C3.88597 19.0871 4.61954 19.4903 5.85743 19.7654C7.11615 20.0452 8.77722 20.1667 11 20.1667C11.6551 20.1667 12.2644 20.1562 12.8316 20.1338C12.8473 19.9298 12.869 19.7147 12.8986 19.4916C13.0818 18.1075 13.5827 16.2876 14.9352 14.9352C16.2876 13.5827 18.1075 13.0818 19.4916 12.8986C19.7147 12.869 19.9298 12.8473 20.1338 12.8316ZM14.6843 20.0003C14.6935 19.9126 14.704 19.8232 14.716 19.7323C14.8765 18.5201 15.2923 17.1707 16.2315 16.2315C17.1707 15.2923 18.5201 14.8765 19.7323 14.716C19.8232 14.704 19.9126 14.6935 20.0003 14.6843C19.7599 16.8214 19.2653 17.9359 18.6006 18.6006C17.9359 19.2653 16.8214 19.7599 14.6843 20.0003Z" fill="white"/>
</svg>
