<svg width="13" height="14" viewBox="0 0 13 14" fill="none" xmlns="http://www.w3.org/2000/svg">
<path fill-rule="evenodd" clip-rule="evenodd" d="M6.91248 0.159621C6.68467 -0.0524742 6.31533 -0.0524741 6.08752 0.159621L3.17085 2.87514C2.94305 3.08723 2.94305 3.43111 3.17085 3.6432C3.39866 3.8553 3.76801 3.8553 3.99581 3.6432L5.91667 1.85482L5.91667 8.1471C5.91667 8.44705 6.17783 8.6902 6.5 8.6902C6.82217 8.6902 7.08333 8.44705 7.08333 8.1471L7.08333 1.85482L9.00419 3.6432C9.23199 3.8553 9.60134 3.8553 9.82915 3.6432C10.057 3.43111 10.057 3.08723 9.82915 2.87514L6.91248 0.159621Z" fill="white"/>
<path fill-rule="evenodd" clip-rule="evenodd" d="M2.70833 4.88067C2.70833 4.51636 2.36638 4.24468 2.03052 4.37937C0.437101 5.01837 0 6.34668 0 8.92571C0 13.104 1.14725 13.9995 6.5 13.9995C11.8528 13.9995 13 13.104 13 8.92571C13 6.34668 12.5629 5.01837 10.9695 4.37937C10.6336 4.24468 10.2917 4.51636 10.2917 4.88067C10.2917 5.12767 10.4546 5.33957 10.6784 5.44033C10.8481 5.51675 10.9837 5.59915 11.0939 5.68517C11.6019 6.0817 11.9167 6.83832 11.9167 8.92571C11.9167 11.0131 11.6019 11.7697 11.0939 12.1662C10.8104 12.3876 10.3587 12.5849 9.59004 12.7183C8.82166 12.8516 7.81948 12.9077 6.5 12.9077C5.18052 12.9077 4.17834 12.8516 3.40996 12.7183C2.64129 12.5849 2.18964 12.3876 1.90608 12.1662C1.39808 11.7697 1.08333 11.0131 1.08333 8.92571C1.08333 6.83832 1.39808 6.0817 1.90608 5.68517C2.01628 5.59915 2.15187 5.51675 2.3216 5.44033C2.54536 5.33957 2.70833 5.12767 2.70833 4.88067Z" fill="white"/>
</svg>
