<svg width="22" height="22" viewBox="0 0 22 22" fill="none" xmlns="http://www.w3.org/2000/svg">
<g clip-path="url(#clip0_2471_128)">
<path fill-rule="evenodd" clip-rule="evenodd" d="M1.89677 18.9199C1.78903 18.6811 1.69231 18.2502 1.69231 17.4167C1.69231 16.5831 1.78903 16.1522 1.89677 15.9135C1.97319 15.7441 2.09792 15.5667 2.4798 15.3786C2.91698 15.1633 3.62754 14.97 4.78983 14.8428C5.9359 14.7173 7.40822 14.6667 9.30769 14.6667C11.2072 14.6667 12.6795 14.7173 13.8256 14.8428C14.9878 14.97 15.6984 15.1633 16.1356 15.3786C16.5175 15.5667 16.6422 15.7441 16.7186 15.9135C16.8264 16.1522 16.9231 16.5831 16.9231 17.4167C16.9231 18.2502 16.8264 18.6811 16.7186 18.9199C16.6422 19.0892 16.5175 19.2667 16.1356 19.4547C15.6984 19.67 14.9878 19.8634 13.8256 19.9906C12.6795 20.116 11.2072 20.1667 9.30769 20.1667C7.40822 20.1667 5.9359 20.116 4.78983 19.9906C3.62754 19.8634 2.91698 19.67 2.4798 19.4547C2.09792 19.2667 1.97319 19.0892 1.89677 18.9199ZM9.30769 22C1.64281 22 0 21.191 0 17.4167C0 13.6423 1.64281 12.8333 9.30769 12.8333C16.9726 12.8333 18.6154 13.6423 18.6154 17.4167C18.6154 21.191 16.9726 22 9.30769 22Z" fill="white"/>
<path fill-rule="evenodd" clip-rule="evenodd" d="M9.30784 9.16667C7.43857 9.16667 5.92323 7.52504 5.92323 5.5C5.92323 3.47496 7.43857 1.83333 9.30784 1.83333C11.1771 1.83333 12.6925 3.47496 12.6925 5.5C12.6925 7.52504 11.1771 9.16667 9.30784 9.16667ZM9.30784 11C6.50394 11 4.23092 8.53757 4.23092 5.5C4.23092 2.46243 6.50394 0 9.30784 0C12.1118 0 14.3848 2.46243 14.3848 5.5C14.3848 8.53757 12.1118 11 9.30784 11Z" fill="white"/>
<path fill-rule="evenodd" clip-rule="evenodd" d="M18.6156 5.5C19.0829 5.5 19.4617 5.91041 19.4617 6.41667V8.25H21.154C21.6214 8.25 22.0002 8.66041 22.0002 9.16667C22.0002 9.67293 21.6214 10.0833 21.154 10.0833H19.4617V11.9167C19.4617 12.4229 19.0829 12.8333 18.6156 12.8333C18.1483 12.8333 17.7694 12.4229 17.7694 11.9167V10.0833H16.0771C15.6098 10.0833 15.231 9.67293 15.231 9.16667C15.231 8.66041 15.6098 8.25 16.0771 8.25H17.7694V6.41667C17.7694 5.91041 18.1483 5.5 18.6156 5.5Z" fill="white"/>
</g>
<defs>
<clipPath id="clip0_2471_128">
<rect width="22" height="22" fill="white"/>
</clipPath>
</defs>
</svg>
