<svg width="13" height="14" viewBox="0 0 13 14" fill="none" xmlns="http://www.w3.org/2000/svg">
<path fill-rule="evenodd" clip-rule="evenodd" d="M6.5 0.5C7.01284 0.5 7.42857 0.915736 7.42857 1.42857V6.07143H12.0714C12.5843 6.07143 13 6.48716 13 7C13 7.51284 12.5843 7.92857 12.0714 7.92857H7.42857V12.5714C7.42857 13.0843 7.01284 13.5 6.5 13.5C5.98716 13.5 5.57143 13.0843 5.57143 12.5714V7.92857H0.928571C0.415736 7.92857 0 7.51284 0 7C0 6.48716 0.415736 6.07143 0.928571 6.07143H5.57143V1.42857C5.57143 0.915736 5.98716 0.5 6.5 0.5Z" fill="#78716C"/>
</svg>
