<svg width="14" height="14" viewBox="0 0 14 14" fill="none" xmlns="http://www.w3.org/2000/svg">
<path fill-rule="evenodd" clip-rule="evenodd" d="M1.422 10.2725C1.24398 9.47154 1.16667 8.4145 1.16667 7C1.16667 5.5855 1.24398 4.52846 1.422 3.72746C1.59707 2.9397 1.85365 2.47289 2.16327 2.16327C2.47289 1.85365 2.9397 1.59707 3.72746 1.422C4.52846 1.24398 5.5855 1.16667 7 1.16667C8.4145 1.16667 9.47154 1.24398 10.2725 1.422C11.0603 1.59707 11.5271 1.85365 11.8367 2.16327C12.1464 2.47289 12.4029 2.9397 12.578 3.72746C12.756 4.52846 12.8333 5.5855 12.8333 7C12.8333 8.4145 12.756 9.47154 12.578 10.2725C12.4029 11.0603 12.1464 11.5271 11.8367 11.8367C11.5271 12.1464 11.0603 12.4029 10.2725 12.578C9.47154 12.756 8.4145 12.8333 7 12.8333C5.5855 12.8333 4.52846 12.756 3.72746 12.578C2.9397 12.4029 2.47289 12.1464 2.16327 11.8367C1.85365 11.5271 1.59707 11.0603 1.422 10.2725ZM7 14C1.2355 14 0 12.7645 0 7C0 1.2355 1.2355 0 7 0C12.7645 0 14 1.2355 14 7C14 12.7645 12.7645 14 7 14Z" fill="#78716C"/>
<path fill-rule="evenodd" clip-rule="evenodd" d="M5.2513 3.49984C5.2513 3.17767 4.99013 2.9165 4.66797 2.9165C4.3458 2.9165 4.08464 3.17767 4.08464 3.49984V7.58317C4.08464 7.61614 4.08737 7.64847 4.09263 7.67995C3.40876 7.91791 2.91797 8.56823 2.91797 9.33317C2.91797 10.2997 3.70147 11.0832 4.66797 11.0832C5.63447 11.0832 6.41797 10.2997 6.41797 9.33317C6.41797 8.56823 5.92718 7.91791 5.24331 7.67995C5.24857 7.64847 5.2513 7.61614 5.2513 7.58317V3.49984ZM8.75929 6.31973C8.07543 6.08176 7.58464 5.43145 7.58464 4.6665C7.58464 3.70001 8.36814 2.9165 9.33464 2.9165C10.3011 2.9165 11.0846 3.70001 11.0846 4.6665C11.0846 5.43145 10.5938 6.08176 9.90998 6.31973C9.91523 6.3512 9.91797 6.38353 9.91797 6.4165V10.4998C9.91797 10.822 9.6568 11.0832 9.33464 11.0832C9.01247 11.0832 8.7513 10.822 8.7513 10.4998V6.4165C8.7513 6.38353 8.75404 6.3512 8.75929 6.31973ZM4.08464 9.33317C4.08464 9.65534 4.3458 9.9165 4.66797 9.9165C4.99013 9.9165 5.2513 9.65534 5.2513 9.33317C5.2513 9.011 4.99013 8.74984 4.66797 8.74984C4.3458 8.74984 4.08464 9.011 4.08464 9.33317ZM9.33464 5.24984C9.01247 5.24984 8.7513 4.98867 8.7513 4.6665C8.7513 4.34434 9.01247 4.08317 9.33464 4.08317C9.6568 4.08317 9.91797 4.34434 9.91797 4.6665C9.91797 4.98867 9.6568 5.24984 9.33464 5.24984Z" fill="#78716C"/>
</svg>
